<svg width="32" height="30" viewBox="0 0 32 30" fill="none" xmlns="http://www.w3.org/2000/svg">
<path d="M8 7.5C8 7.25136 8.10536 7.0129 8.29289 6.83709C8.48043 6.66127 8.73478 6.5625 9 6.5625C9.26522 6.5625 9.51957 6.66127 9.70711 6.83709C9.89464 7.0129 10 7.25136 10 7.5V13.59L22.534 6.7725C23.574 6.20625 25 6.85313 25 8.0775V21.9225C25 23.1469 23.574 23.7937 22.534 23.2275L10 16.41V22.5C10 22.7486 9.89464 22.9871 9.70711 23.1629C9.51957 23.3387 9.26522 23.4375 9 23.4375C8.73478 23.4375 8.48043 23.3387 8.29289 23.1629C8.10536 22.9871 8 22.7486 8 22.5V7.5ZM23 8.68687L11.392 15L23 21.3131V8.68687Z" fill="#A48DFF"/>
</svg>
