<svg width="33" height="30" viewBox="0 0 33 30" fill="none" xmlns="http://www.w3.org/2000/svg">
<path d="M25.7812 7.5C25.7812 7.25136 25.6726 7.0129 25.4792 6.83709C25.2858 6.66127 25.0235 6.5625 24.75 6.5625C24.4765 6.5625 24.2142 6.66127 24.0208 6.83709C23.8274 7.0129 23.7188 7.25136 23.7188 7.5V13.59L10.7931 6.7725C9.72056 6.20625 8.25 6.85313 8.25 8.0775V21.9225C8.25 23.1469 9.72056 23.7937 10.7931 23.2275L23.7188 16.41V22.5C23.7188 22.7486 23.8274 22.9871 24.0208 23.1629C24.2142 23.3387 24.4765 23.4375 24.75 23.4375C25.0235 23.4375 25.2858 23.3387 25.4792 23.1629C25.6726 22.9871 25.7812 22.7486 25.7812 22.5V7.5ZM10.3125 8.68687L22.2832 15L10.3125 21.3131V8.68687Z" fill="#A48DFF"/>
</svg>
