<svg width="25" height="42" viewBox="0 0 34 40" fill="none" xmlns="http://www.w3.org/2000/svg">
<path d="M12.75 7.5H10.625C10.0614 7.5 9.52091 7.76339 9.1224 8.23223C8.72388 8.70107 8.5 9.33696 8.5 10V30C8.5 30.663 8.72388 31.2989 9.1224 31.7678C9.52091 32.2366 10.0614 32.5 10.625 32.5H12.75C13.3136 32.5 13.8541 32.2366 14.2526 31.7678C14.6511 31.2989 14.875 30.663 14.875 30V10C14.875 9.33696 14.6511 8.70107 14.2526 8.23223C13.8541 7.76339 13.3136 7.5 12.75 7.5V7.5ZM23.375 7.5H21.25C20.6864 7.5 20.1459 7.76339 19.7474 8.23223C19.3489 8.70107 19.125 9.33696 19.125 10V30C19.125 30.663 19.3489 31.2989 19.7474 31.7678C20.1459 32.2366 20.6864 32.5 21.25 32.5H23.375C23.9386 32.5 24.4791 32.2366 24.8776 31.7678C25.2761 31.2989 25.5 30.663 25.5 30V10C25.5 9.33696 25.2761 8.70107 24.8776 8.23223C24.4791 7.76339 23.9386 7.5 23.375 7.5V7.5Z" fill="#A48DFF"/>
</svg>
